<svg width="40" height="40" viewBox="0 0 40 40" fill="none" xmlns="http://www.w3.org/2000/svg">
<rect width="40" height="40" rx="8" fill="black"/>
<path d="M12 22C11.8108 22.0006 11.6252 21.9476 11.4649 21.847C11.3047 21.7464 11.1762 21.6024 11.0945 21.4317C11.0129 21.261 10.9813 21.0706 11.0035 20.8827C11.0257 20.6947 11.1008 20.517 11.22 20.37L21.12 10.17C21.1943 10.0843 21.2955 10.0264 21.407 10.0057C21.5185 9.98511 21.6337 10.003 21.7337 10.0565C21.8337 10.11 21.9126 10.1959 21.9573 10.3001C22.0021 10.4043 22.0101 10.5206 21.98 10.63L20.06 16.65C20.0034 16.8015 19.9844 16.9645 20.0046 17.125C20.0248 17.2855 20.0837 17.4387 20.1761 17.5714C20.2685 17.7042 20.3918 17.8125 20.5353 17.8872C20.6788 17.9618 20.8382 18.0005 21 18H28C28.1892 17.9994 28.3748 18.0524 28.535 18.153C28.6953 18.2536 28.8238 18.3976 28.9054 18.5683C28.9871 18.739 29.0187 18.9294 28.9965 19.1173C28.9743 19.3053 28.8992 19.483 28.78 19.63L18.88 29.83C18.8057 29.9157 18.7045 29.9736 18.593 29.9943C18.4815 30.0149 18.3663 29.997 18.2663 29.9435C18.1663 29.89 18.0874 29.8041 18.0427 29.6999C17.9979 29.5957 17.9899 29.4794 18.02 29.37L19.94 23.35C19.9966 23.1985 20.0156 23.0355 19.9954 22.875C19.9752 22.7145 19.9163 22.5613 19.8239 22.4286C19.7315 22.2958 19.6082 22.1875 19.4647 22.1128C19.3212 22.0382 19.1617 21.9995 19 22H12Z" stroke="white" stroke-width="2" stroke-linecap="round" stroke-linejoin="round"/>
</svg>
